<svg width="1868.000000" height="534.000000" viewBox="0 0 1868 534" fill="none" xmlns="http://www.w3.org/2000/svg" xmlns:xlink="http://www.w3.org/1999/xlink">
	<desc>
			Created with Pixso.
	</desc>
	<defs>
		<clipPath id="clip2_7">
			<rect id="фрейм 1" width="1868.000000" height="534.000000" fill="white" fill-opacity="0"/>
		</clipPath>
	</defs>
	<rect width="1868.000000" height="534.000000" fill="#0E1117"/>
	<rect id="фрейм 1" width="1868.000000" height="534.000000" fill="#0E1117" fill-opacity="0"/>
	<g clip-path="url(#clip2_7)">
		<path id="-hydrocarbo" d="M902.5 253.83Q918.08 259.7 937.38 259.7Q956.5 259.7 971.97 253.83Q985.91 248.52 994.59 238.6Q995.57 237.49 996.47 236.32Q998.82 233.3 1000.55 229.97Q1005.48 220.48 1005.48 208.44Q1005.48 196.81 1000.78 187.57Q998.97 184.01 996.47 180.81Q995.8 179.94 995.08 179.1Q986.31 168.83 971.97 163.3Q956.5 157.32 937.38 157.32Q918.08 157.32 902.57 163.3Q888.4 168.78 879.6 178.91Q878.79 179.84 878.03 180.81Q875.43 184.11 873.58 187.79Q868.96 196.95 868.96 208.44Q868.96 220.48 873.89 229.97Q875.62 233.3 877.96 236.32Q878.83 237.43 879.75 238.5Q888.46 248.49 902.5 253.83ZM1094.43 247.48Q1090.18 249.64 1084.82 249.64Q1081.52 249.64 1078.74 248.43Q1072.06 245.53 1068.41 235.65Q1064.37 225.32 1064.37 208.44Q1064.37 197.79 1065.94 189.88Q1068.13 179.51 1072.31 174.16Q1075.02 170.31 1078.71 168.66Q1081.49 167.41 1084.82 167.41Q1090.61 167.41 1094.98 169.9Q1096.79 170.94 1098.36 172.41Q1101.01 174.86 1102.96 177.79Q1104.93 180.76 1106.19 184.22Q1108.73 191.04 1109.29 197.51L1117.52 197.51Q1117.06 189.74 1114.31 181.83Q1111.62 173.88 1106.73 168.29Q1104.66 165.92 1102.18 164.12Q1097.56 160.78 1091.51 159.43Q1082.22 157.32 1067.39 157.32Q1051.29 157.32 1041.34 159.92Q1039.93 160.29 1038.56 160.77Q1030.25 163.67 1023.34 170.58Q1010.96 182.95 1010.96 208.44Q1010.96 228.75 1020.7 241.77Q1022.56 244.26 1024.78 246.48Q1027.23 248.92 1030.02 250.89Q1035.26 254.59 1041.68 256.6Q1051.56 259.7 1067.39 259.7Q1078.64 259.7 1085.6 258.85Q1092.6 257.98 1098.43 255.02Q1104.27 252.07 1108.87 246.02L1108.88 246.01Q1117.06 235.08 1119.1 219.55L1110.17 219.55Q1108.31 232.07 1101.94 240.85Q1098.76 245.29 1094.43 247.48ZM1536.54 253.83Q1552.11 259.7 1571.41 259.7Q1590.54 259.7 1606.01 253.83Q1619.95 248.52 1628.63 238.6Q1629.6 237.49 1630.51 236.32Q1632.85 233.3 1634.58 229.97Q1639.51 220.48 1639.51 208.44Q1639.51 196.81 1634.82 187.57Q1633.01 184.01 1630.51 180.81Q1629.83 179.94 1629.12 179.1Q1620.34 168.83 1606.01 163.3Q1590.54 157.32 1571.41 157.32Q1552.11 157.32 1536.61 163.3Q1522.44 168.78 1513.63 178.91Q1512.83 179.84 1512.07 180.81Q1509.47 184.11 1507.62 187.79Q1503 196.95 1503 208.44Q1503 220.48 1507.93 229.97Q1509.66 233.3 1512 236.32Q1512.86 237.43 1513.79 238.5Q1522.49 248.49 1536.54 253.83ZM407.72 158.2L358.78 158.2L358.78 259L407.72 259L407.72 212.91L439.57 212.91L439.57 259L488.51 259L488.51 158.2L439.57 158.2L439.57 203.27L407.72 203.27L407.72 158.2ZM494.56 158.2L525.82 212.77L525.82 259L576.2 259L576.2 212.77L602.98 158.2L591.91 158.2L571.73 199.37L551.02 158.2L494.56 158.2ZM684.93 158.2L609.2 158.2L609.2 259L684.93 259Q695.06 259 703.78 255.49Q712.91 251.82 720.5 244.3Q727.87 236.93 731.58 228.04Q735.34 219.02 735.34 208.44Q735.34 198.43 731.88 189.81Q728.18 180.56 720.5 172.9Q712.54 165.08 702.98 161.42Q694.57 158.2 684.93 158.2ZM838.73 158.2L742.4 158.2L742.4 259L790.21 259L790.21 212.77L794.08 212.91Q797.38 213.05 801.14 213.78Q804.73 214.49 807.61 216.07Q810.21 217.51 812.22 220.53Q813.94 223.14 813.94 227.74L813.94 259L862.21 259L862.21 232.94Q862.21 229.59 861.24 226.54Q860.01 222.65 857.22 219.27Q855.1 216.67 852.47 214.79Q848.94 212.27 844.49 211.04Q847.86 210.22 850.78 208.59Q855.48 205.97 859.01 201.27Q862.26 196.96 863.68 192.11Q864.78 188.34 864.78 184.25Q864.78 180.13 863.58 176.39Q862.73 173.72 861.26 171.25Q859.5 168.26 857.13 165.88Q854.76 163.51 851.77 161.75Q849.13 160.18 846.28 159.31Q842.67 158.2 838.73 158.2ZM1194.55 158.2L1152.5 158.2L1114.5 259L1125.01 259L1137.94 225.6L1169.62 225.6L1184.77 259L1239.19 259L1194.55 158.2ZM1341.15 158.2L1244.81 158.2L1244.81 259L1292.63 259L1292.63 212.77L1296.5 212.91Q1299.8 213.05 1303.56 213.78Q1307.15 214.49 1310.03 216.07Q1312.64 217.51 1314.64 220.53Q1316.36 223.14 1316.36 227.74L1316.36 259L1364.63 259L1364.63 232.94Q1364.63 229.59 1363.66 226.54Q1362.43 222.65 1359.64 219.27Q1357.52 216.67 1354.89 214.79Q1351.36 212.27 1346.91 211.04Q1350.28 210.22 1353.2 208.59Q1357.9 205.97 1361.43 201.27Q1364.68 196.96 1366.1 192.11Q1367.2 188.34 1367.2 184.25Q1367.2 180.13 1366 176.39Q1365.15 173.72 1363.68 171.25Q1361.92 168.26 1359.55 165.88Q1357.18 163.51 1354.19 161.75Q1351.55 160.18 1348.7 159.31Q1345.09 158.2 1341.15 158.2ZM1471.59 158.2L1375.54 158.2L1375.54 259L1471.59 259Q1476.21 259 1480.35 257.58Q1482.79 256.74 1485.06 255.41Q1488.3 253.5 1490.82 250.9Q1493.1 248.57 1494.79 245.67Q1496.37 242.97 1497.26 240.07Q1498.38 236.38 1498.38 232.35Q1498.38 229.8 1497.93 227.33Q1497.13 223 1494.93 218.92Q1492.64 214.64 1489.32 211.41Q1487.65 209.79 1485.72 208.44Q1487.67 207.14 1489.35 205.55Q1492.65 202.44 1494.93 198.25Q1497.07 194.31 1497.88 190.12Q1498.38 187.53 1498.38 184.85Q1498.38 180.23 1496.96 176.09Q1496.12 173.66 1494.79 171.39Q1492.99 168.31 1490.54 165.89Q1488.12 163.5 1485.06 161.75Q1482.85 160.48 1480.49 159.66Q1476.29 158.2 1471.59 158.2ZM942.43 249.98Q940.26 251.23 937.38 251.23Q934.3 251.23 932.01 249.89Q929.66 248.52 928.13 245.74Q925.56 240.85 924.97 230.91Q924.54 227.18 924.54 208.44Q924.54 191.88 925.11 184.39Q925.85 175.6 928.31 171.32Q929.92 168.39 932.4 167.02Q934.56 165.83 937.38 165.83Q940.08 165.83 942.15 166.98Q944.59 168.34 946.13 171.32Q948.87 175.78 949.33 184.39Q950.03 191.46 950.03 208.44Q950.03 225.32 949.61 230.91Q948.73 241.56 946.31 245.74Q944.8 248.61 942.43 249.98ZM1576.46 249.98Q1574.3 251.23 1571.41 251.23Q1568.34 251.23 1566.05 249.89Q1563.7 248.52 1562.17 245.74Q1559.6 240.85 1559 230.91Q1558.58 227.18 1558.58 208.44Q1558.58 191.88 1559.14 184.39Q1559.88 175.6 1562.34 171.32Q1563.96 168.39 1566.43 167.02Q1568.59 165.83 1571.41 165.83Q1574.12 165.83 1576.18 166.98Q1578.62 168.34 1580.17 171.32Q1582.91 175.78 1583.37 184.39Q1584.07 191.46 1584.07 208.44Q1584.07 225.32 1583.65 230.91Q1582.77 241.56 1580.34 245.74Q1578.84 248.61 1576.46 249.98ZM800.88 203.61Q798.19 204.43 795.24 204.43L790.21 204.57L790.21 166.39L795.24 166.39Q798.04 166.39 800.62 167.16Q802.79 167.81 804.8 169Q807.12 170.37 808.92 172.24Q810.53 173.91 811.73 175.99Q812.81 177.88 813.43 179.91Q814.26 182.61 814.26 185.55Q814.26 187.9 813.71 190.11Q813.07 192.64 811.73 194.98Q810.46 197.17 808.73 198.9Q807 200.64 804.8 201.9Q802.91 202.99 800.88 203.61ZM1303.3 203.61Q1300.61 204.43 1297.66 204.43L1292.63 204.57L1292.63 166.39L1297.66 166.39Q1300.46 166.39 1303.04 167.16Q1305.21 167.81 1307.22 169Q1309.54 170.37 1311.34 172.24Q1312.95 173.91 1314.15 175.99Q1315.23 177.88 1315.85 179.91Q1316.68 182.61 1316.68 185.55Q1316.68 187.9 1316.13 190.11Q1315.5 192.64 1314.15 194.98Q1312.88 197.17 1311.15 198.9Q1309.42 200.64 1307.22 201.9Q1305.32 202.99 1303.3 203.61ZM1433.92 203.61Q1431.23 204.43 1428.28 204.43Q1426.84 204.43 1426.1 204.29L1426.1 166.39L1428.28 166.39Q1431.08 166.39 1433.66 167.16Q1435.83 167.81 1437.84 169Q1440.21 170.4 1442.03 172.32Q1443.58 173.97 1444.73 175.99Q1445.82 177.88 1446.44 179.91Q1447.26 182.61 1447.26 185.55Q1447.26 187.9 1446.71 190.11Q1446.08 192.64 1444.73 194.98Q1443.51 197.12 1441.85 198.82Q1440.09 200.6 1437.84 201.9Q1435.95 202.99 1433.92 203.61ZM678.12 247.5Q674.54 250.63 668.23 250.63L659.58 250.63L659.58 166.53L668.23 166.53Q674.19 166.53 677.72 169.46Q678.96 170.49 679.9 171.88Q683.34 176.34 684.22 184.85Q685.07 196.07 685.07 208.44Q685.07 224.44 684.36 230.62Q683.48 240.12 680.04 245.32Q679.21 246.55 678.12 247.5ZM1152.5 187.56L1165.61 216.81L1141.11 216.81L1152.5 187.56ZM349.69 193.04L284.16 193.04L284.16 223.7L349.69 223.7L349.69 193.04ZM1434.06 249.77Q1431.3 250.63 1428.28 250.63Q1426.84 250.63 1426.1 250.49L1426.1 212.77L1428.28 212.77Q1431.23 212.77 1433.92 213.59Q1435.95 214.21 1437.84 215.3Q1440.09 216.59 1441.85 218.38Q1443.51 220.08 1444.73 222.22Q1445.96 224.33 1446.59 226.61Q1447.26 229.03 1447.26 231.64Q1447.26 234.59 1446.44 237.29Q1445.82 239.32 1444.73 241.21Q1443.51 243.35 1441.85 245.05Q1440.09 246.83 1437.84 248.13Q1436.02 249.17 1434.06 249.77Z" fill="#848080" fill-opacity="1.000000" fill-rule="evenodd"/>
		<path id="t" d="M68.04 97.35L143.77 97.35L143.77 282L244.6 282L244.6 97.35L320.6 97.35L320.6 80.41L68.04 80.41L68.04 97.35Z" fill="#848080" fill-opacity="1.000000" fill-rule="evenodd"/>
	</g>
</svg>
